<svg width="22" height="22" viewBox="0 0 22 22" fill="none" xmlns="http://www.w3.org/2000/svg">
<path d="M11.2266 20.6066L0.374087 11.2764C0.245275 11.1653 0.153899 11.0451 0.0999615 10.9157C0.0460237 10.7863 0.019631 10.6477 0.0207832 10.5C0.0210753 10.3522 0.0484458 10.2138 0.102895 10.0846C0.157344 9.95539 0.248763 9.83552 0.377154 9.72496L11.2665 0.410053C11.5681 0.152073 11.9447 0.0235299 12.3963 0.0244227C12.8479 0.0253154 13.2348 0.164603 13.5568 0.442285C13.8788 0.719967 14.0395 1.0435 14.0388 1.4129C14.038 1.78229 13.8761 2.10519 13.553 2.38159L4.05303 10.508L13.5208 18.6718C13.8213 18.931 13.9712 19.2501 13.9705 19.629C13.9697 20.008 13.8078 20.3354 13.4847 20.611C13.1615 20.8875 12.7849 21.0252 12.3548 21.0244C11.9247 21.0235 11.5486 20.8843 11.2266 20.6066Z" fill="white"/>
<path d="M11.2266 20.6066L0.374087 11.2764C0.245275 11.1653 0.153899 11.0451 0.0999615 10.9157C0.0460237 10.7863 0.019631 10.6477 0.0207832 10.5C0.0210753 10.3522 0.0484458 10.2138 0.102895 10.0846C0.157344 9.95539 0.248763 9.83552 0.377154 9.72496L11.2665 0.410053C11.5681 0.152073 11.9447 0.0235299 12.3963 0.0244227C12.8479 0.0253154 13.2348 0.164603 13.5568 0.442285C13.8788 0.719967 14.0395 1.0435 14.0388 1.4129C14.038 1.78229 13.8761 2.10519 13.553 2.38159L4.05303 10.508L13.5208 18.6718C13.8213 18.931 13.9712 19.2501 13.9705 19.629C13.9697 20.008 13.8078 20.3354 13.4847 20.611C13.1615 20.8875 12.7849 21.0252 12.3548 21.0244C11.9247 21.0235 11.5486 20.8843 11.2266 20.6066Z" fill="white"/>
</svg>
