<svg width="16" height="24" viewBox="0 0 16 24" fill="none" xmlns="http://www.w3.org/2000/svg">
<path d="M3.13735 0.468856L15.4326 10.9715C15.5786 11.0965 15.6822 11.2319 15.7435 11.3778C15.8048 11.5237 15.8349 11.68 15.834 11.8467C15.834 12.0134 15.8033 12.1697 15.742 12.3155C15.6807 12.4614 15.5776 12.5969 15.4326 12.7219L3.13735 23.2558C2.79683 23.5475 2.37117 23.6934 1.86039 23.6934C1.34961 23.6934 0.911794 23.5371 0.546948 23.2245C0.182103 22.9119 -0.000319481 22.5472 -0.000319481 22.1305C-0.000319481 21.7137 0.182103 21.349 0.546948 21.0365L11.2734 11.8467L0.546948 2.6569C0.206426 2.36516 0.0361643 2.00549 0.0361643 1.57788C0.0361643 1.15028 0.218587 0.7806 0.583432 0.468856C0.948277 0.156279 1.37393 -1.00319e-05 1.86039 -1.00319e-05C2.34685 -1.00319e-05 2.7725 0.156279 3.13735 0.468856Z" fill="#262626"/>
</svg>
