<svg width="22" height="16" viewBox="0 0 22 16" fill="none" xmlns="http://www.w3.org/2000/svg">
<path d="M0.863749 0.477686C0.634668 0.477686 0.41497 0.559456 0.252986 0.705006C0.0910018 0.850556 0 1.04796 0 1.2538C0 1.45964 0.0910018 1.65705 0.252986 1.8026C0.41497 1.94815 0.634668 2.02992 0.863749 2.02992H2.78127L5.04775 10.1792C5.24036 10.8699 5.92877 11.3433 6.72083 11.3433H17.4918C18.2717 11.3433 18.9342 10.8777 19.1389 10.2024L21.3778 2.80604H19.5691L17.4909 9.7911H6.71996L4.45435 1.64186C4.36076 1.30753 4.14502 1.0111 3.84168 0.800019C3.53833 0.588942 3.16493 0.475439 2.78127 0.477686H0.863749ZM16.4112 11.3433C14.9904 11.3433 13.82 12.395 13.82 13.6717C13.82 14.9484 14.9904 16 16.4112 16C17.8321 16 19.0025 14.9484 19.0025 13.6717C19.0025 12.395 17.8321 11.3433 16.4112 11.3433ZM8.63749 11.3433C7.21662 11.3433 6.04624 12.395 6.04624 13.6717C6.04624 14.9484 7.21662 16 8.63749 16C10.0584 16 11.2287 14.9484 11.2287 13.6717C11.2287 12.395 10.0584 11.3433 8.63749 11.3433ZM11.2287 0.477686V4.35828H8.63749L12.0925 7.46275L15.5475 4.35828H12.9562V0.477686H11.2287ZM8.63749 12.8956C9.12464 12.8956 9.50123 13.234 9.50123 13.6717C9.50123 14.1094 9.12464 14.4478 8.63749 14.4478C8.15033 14.4478 7.77374 14.1094 7.77374 13.6717C7.77374 13.234 8.15033 12.8956 8.63749 12.8956ZM16.4112 12.8956C16.8984 12.8956 17.275 13.234 17.275 13.6717C17.275 14.1094 16.8984 14.4478 16.4112 14.4478C15.9241 14.4478 15.5475 14.1094 15.5475 13.6717C15.5475 13.234 15.9241 12.8956 16.4112 12.8956Z" fill="#262626"/>
</svg>
