<svg width="150" height="150" viewBox="0 0 150 150" fill="none" xmlns="http://www.w3.org/2000/svg">
<path d="M95.3353 117.645L77.5779 99.8873C76.929 99.2383 76.1621 99.1203 75.7491 99.1203C75.3361 99.1203 74.5692 99.2383 73.9203 99.8873L56.1039 117.704C54.0981 119.709 50.9713 122.954 40.5293 122.954L62.4163 144.782C65.7348 148.097 70.2331 149.958 74.9232 149.958C79.6133 149.958 84.1116 148.097 87.43 144.782L109.376 122.895C104.008 122.895 99.5239 121.833 95.3353 117.645ZM56.1039 64.2545L73.9203 82.0709C74.3922 82.5428 75.1002 82.8378 75.7491 82.8378C76.398 82.8378 77.106 82.5428 77.5779 82.0709L95.2173 64.4315C99.406 60.0659 104.185 59.063 109.553 59.063L87.607 37.176C84.2886 33.8616 79.7903 32 75.1002 32C70.4101 32 65.9118 33.8616 62.5933 37.176L40.7063 59.004C51.0893 59.004 54.2751 62.4257 56.1039 64.2545Z" fill="#FFFBFE"/>
<path d="M128.723 78.2965L115.449 64.9637H108.016C104.83 64.9637 101.645 66.2616 99.4618 68.5624L81.7635 86.2608C80.1116 87.9126 77.9288 88.7385 75.746 88.7385C73.4983 88.7069 71.3468 87.821 69.7285 86.2608L51.9122 68.3854C49.6704 66.1436 46.6026 64.8457 43.3579 64.8457H34.6857L21.176 78.4145C17.8616 81.7329 16 86.2312 16 90.9213C16 95.6114 17.8616 100.11 21.176 103.428L34.6857 116.997H43.4169C46.6026 116.997 49.6704 115.699 51.9712 113.457L69.7875 95.6409C71.4394 93.9891 73.6222 93.1631 75.805 93.1631C77.9878 93.1631 80.1706 93.9891 81.8225 95.6409L99.5798 113.398C101.822 115.64 104.889 116.938 108.134 116.938H115.567L128.841 103.605C132.169 100.227 134.025 95.6688 134.003 90.9265C133.981 86.1842 132.083 81.6435 128.723 78.2965Z" fill="#FFFBFE"/>
</svg>
