<svg width="14" height="21" viewBox="0 0 14 21" fill="none" xmlns="http://www.w3.org/2000/svg">
<path d="M11.2258 20.5844L0.354858 11.2757C0.225826 11.1648 0.134213 11.0448 0.08002 10.9155C0.0258265 10.7862 -0.000840053 10.6477 2.01613e-05 10.4999C2.01613e-05 10.3522 0.0271169 10.2137 0.0813104 10.0844C0.135504 9.95508 0.226686 9.83503 0.354858 9.72421L11.2258 0.387802C11.5269 0.129226 11.9032 -6.10352e-05 12.3548 -6.10352e-05C12.8065 -6.10352e-05 13.1936 0.138461 13.5161 0.415506C13.8387 0.692551 14 1.01577 14 1.38516C14 1.75456 13.8387 2.07778 13.5161 2.35482L4.03227 10.4999L13.5161 18.6451C13.8172 18.9036 13.9677 19.2224 13.9677 19.6014C13.9677 19.9804 13.8065 20.3081 13.4839 20.5844C13.1613 20.8614 12.7849 20.9999 12.3548 20.9999C11.9247 20.9999 11.5484 20.8614 11.2258 20.5844Z" fill="white"/>
<path d="M11.2258 20.5844L0.354858 11.2757C0.225826 11.1648 0.134213 11.0448 0.08002 10.9155C0.0258265 10.7862 -0.000840053 10.6477 2.01613e-05 10.4999C2.01613e-05 10.3522 0.0271169 10.2137 0.0813104 10.0844C0.135504 9.95508 0.226686 9.83503 0.354858 9.72421L11.2258 0.387802C11.5269 0.129226 11.9032 -6.10352e-05 12.3548 -6.10352e-05C12.8065 -6.10352e-05 13.1936 0.138461 13.5161 0.415506C13.8387 0.692551 14 1.01577 14 1.38516C14 1.75456 13.8387 2.07778 13.5161 2.35482L4.03227 10.4999L13.5161 18.6451C13.8172 18.9036 13.9677 19.2224 13.9677 19.6014C13.9677 19.9804 13.8065 20.3081 13.4839 20.5844C13.1613 20.8614 12.7849 20.9999 12.3548 20.9999C11.9247 20.9999 11.5484 20.8614 11.2258 20.5844Z" fill="white"/>
</svg>
