<svg width="23" height="22" viewBox="0 0 23 22" fill="none" xmlns="http://www.w3.org/2000/svg">
<path d="M10.8149 0.421066L21.6674 9.75125C21.7962 9.86232 21.8876 9.98255 21.9415 10.1119C21.9955 10.2413 22.0219 10.3799 22.0207 10.5277C22.0204 10.6754 21.993 10.8139 21.9386 10.9431C21.8841 11.0723 21.7927 11.1921 21.6643 11.3027L10.7749 20.6176C10.4734 20.8756 10.0968 21.0041 9.64515 21.0032C9.19354 21.0023 8.80672 20.863 8.48469 20.5854C8.16266 20.3077 8.00201 19.9841 8.00274 19.6148C8.00347 19.2454 8.16539 18.9225 8.48852 18.6461L17.9885 10.5197L8.52072 2.35585C8.22016 2.09668 8.07025 1.7776 8.071 1.3986C8.07175 1.01961 8.23369 0.69227 8.55681 0.416602C8.87994 0.140196 9.25656 0.00241733 9.68666 0.00326755C10.1168 0.00411778 10.4928 0.143384 10.8149 0.421066Z" fill="white"/>
<path d="M10.8149 0.421066L21.6674 9.75125C21.7962 9.86232 21.8876 9.98255 21.9415 10.1119C21.9955 10.2413 22.0219 10.3799 22.0207 10.5277C22.0204 10.6754 21.993 10.8139 21.9386 10.9431C21.8841 11.0723 21.7927 11.1921 21.6643 11.3027L10.7749 20.6176C10.4734 20.8756 10.0968 21.0041 9.64515 21.0032C9.19354 21.0023 8.80672 20.863 8.48469 20.5854C8.16266 20.3077 8.00201 19.9841 8.00274 19.6148C8.00347 19.2454 8.16539 18.9225 8.48852 18.6461L17.9885 10.5197L8.52072 2.35585C8.22016 2.09668 8.07025 1.7776 8.071 1.3986C8.07175 1.01961 8.23369 0.69227 8.55681 0.416602C8.87994 0.140196 9.25656 0.00241733 9.68666 0.00326755C10.1168 0.00411778 10.4928 0.143384 10.8149 0.421066Z" fill="white"/>
</svg>
