<?xml version="1.0" encoding="UTF-8" standalone="no"?>
<!-- Created with Inkscape (http://www.inkscape.org/) -->

<svg
   version="1.1"
   id="svg85"
   width="1035.5498"
   height="965.93317"
   viewBox="0 0 1035.5498 965.93312"
   sodipodi:docname="logo.svg"
   inkscape:version="1.2.2 (b0a8486541, 2022-12-01)"
   xmlns:inkscape="http://www.inkscape.org/namespaces/inkscape"
   xmlns:sodipodi="http://sodipodi.sourceforge.net/DTD/sodipodi-0.dtd"
   xmlns="http://www.w3.org/2000/svg"
   xmlns:svg="http://www.w3.org/2000/svg">
  <defs
     id="defs89" />
  <sodipodi:namedview
     id="namedview87"
     pagecolor="#ffffff"
     bordercolor="#666666"
     borderopacity="1.0"
     inkscape:showpageshadow="2"
     inkscape:pageopacity="0.0"
     inkscape:pagecheckerboard="0"
     inkscape:deskcolor="#d1d1d1"
     showgrid="false"
     inkscape:zoom="0.85218743"
     inkscape:cx="464.09978"
     inkscape:cy="493.43605"
     inkscape:current-layer="g91" />
  <g
     inkscape:groupmode="layer"
     inkscape:label="Image"
     id="g91"
     transform="translate(-16.345561,-39.332428)">
    <path
       style="fill:#fff;stroke-width:1"
       d="m 350.44116,1003.9692 c -19.99756,-3.3746 -46.56682,-15.09982 -58.03046,-25.60929 l -2.92264,-2.67937 9.28579,-13.84026 c 5.10719,-7.61213 9.60837,-13.84025 10.00264,-13.84025 0.39425,0 3.48511,2.11373 6.86855,4.69719 3.38344,2.58345 9.79745,6.47048 14.25334,8.63784 36.56294,17.78432 69.77878,5.07361 88.85379,-34.0017 12.98434,-26.59851 15.54079,-53.27201 6.87962,-71.78052 -2.26879,-4.84827 -6.88882,-11.76972 -10.26676,-15.381 -10.45331,-11.17544 -31.03612,-19.93604 -52.11407,-22.18116 l -8.08238,-0.86089 2.71594,-15.87078 c 1.80521,-10.54889 3.3538,-16.11553 4.61817,-16.60072 5.49772,-2.10967 35.24487,4.36485 52.22487,11.36684 18.69356,7.7086 38.45745,24.0468 47.182,39.00392 22.58762,38.72352 11.78371,100.26694 -24.58805,140.06343 -20.81056,22.77007 -55.24499,34.21512 -86.88035,28.87672 z m 385.1698,-18.95208 c -3.97728,-6.79273 -7.85966,-13.5542 -8.62752,-15.02549 -1.28471,-2.46161 1.15076,-4.14905 30.52166,-21.14736 l 31.91778,-18.47229 -2.43292,-4.18598 c -1.33811,-2.30228 -7.17638,-12.4119 -12.97394,-22.46581 l -10.54101,-18.27984 -4.07083,2.4596 c -25.35718,15.32084 -55.90457,32.12497 -56.76965,31.22901 -0.59952,-0.6209 -4.49984,-7.05502 -8.66737,-14.29801 -5.9541,-10.34796 -7.19065,-13.42014 -5.77225,-14.34096 0.99282,-0.64452 14.40511,-8.45023 29.80511,-17.346 15.4,-8.89579 28.15648,-16.29884 28.34774,-16.45124 0.39492,-0.31468 -27.44022,-48.78838 -28.95303,-50.42047 -0.54095,-0.5836 -16.14089,7.70156 -34.66655,18.41147 -18.52565,10.7099 -33.83527,19.28738 -34.02136,19.06108 -1.54032,-1.87312 -16.82005,-29.39452 -16.48051,-29.68418 1.67956,-1.43276 102.87809,-59.40071 103.17735,-59.10143 0.32238,0.32238 32.58052,56.01357 92.6025,159.87105 l 14.35005,24.83024 -48.07097,27.83643 c -26.43904,15.31004 -48.82966,28.29412 -49.75692,28.85352 -1.17088,0.70637 -3.89518,-2.756 -8.91736,-11.33334 z M 566.17002,939.44368 c -7.17155,-2.65062 -14.13892,-8.58148 -18.70455,-15.92188 -5.03161,-8.08957 -6.29099,-22.34109 -2.88136,-32.60649 7.88229,-23.73138 40.32945,-31.7517 58.96416,-14.57483 8.00783,7.38136 11.3763,14.35264 12.15126,25.14785 1.1623,16.19094 -6.38555,29.71209 -20.36618,36.48377 -6.85308,3.31937 -22.08453,4.08796 -29.16333,1.47158 z M 157.69547,876.33336 c -13.32827,-13.67197 -31.15002,-35.60821 -37.50162,-46.15957 -9.64467,-16.0219 -14.44505,-33.10105 -12.97791,-46.17377 2.69781,-24.0383 28.11277,-47.41617 53.30559,-49.03294 10.75804,-0.6904 21.08168,1.18792 29.33324,5.33702 l 5.1881,2.60871 -0.86057,-6.48731 c -1.09901,-8.28477 1.89531,-20.15778 7.37237,-29.2327 2.25964,-3.74398 10.71054,-15.14398 18.77978,-25.33334 8.06924,-10.18936 17.53121,-22.57931 21.02661,-27.53323 l 6.35525,-9.00713 11.70376,15.00713 c 6.43708,8.25392 12.26822,15.7497 12.9581,16.6573 1.76453,2.32141 -3.90851,10.72836 -22.28262,33.02084 -27.54336,33.41713 -29.17108,41.39337 -12.7823,62.63628 l 5.52896,7.16656 34.01503,-26.75319 c 28.55896,-22.46193 34.29245,-26.4565 35.74465,-24.90358 0.95131,1.01726 6.63187,8.1061 12.62348,15.75296 10.4372,13.32058 10.79352,14.00073 8.50089,16.2261 -4.70224,4.56431 -162.36665,127.87053 -163.50052,127.87053 -0.63629,0 -6.27492,-5.25 -12.53027,-11.66667 z m 34.92011,-57.08425 c 13.56549,-10.67968 24.94139,-19.86558 25.27977,-20.4131 1.14774,-1.85707 -15.90801,-20.72975 -22.31234,-24.68923 -12.5709,-7.772 -27.48679,-5.87313 -39.28386,5.00103 -8.42269,7.76377 -11.37949,14.23089 -10.71384,23.43343 0.7014,9.69668 4.7082,17.74529 13.87913,27.87949 4.08429,4.51328 7.66462,8.20596 7.95629,8.20596 0.29166,0 11.62936,-8.73792 25.19485,-19.41758 z m 721.31393,-5.04492 c -9.9772,-3.26359 -21.84614,-10.50518 -27.99884,-17.08293 -9.32082,-9.96469 -14.13264,-21.4588 -14.94454,-35.6983 l -0.66752,-11.70734 -6.15929,3.47554 c -5.65061,3.18849 -7.37059,3.46596 -20.82596,3.35962 -13.78521,-0.10893 -16.34944,-0.59981 -42.66667,-8.16796 -15.4,-4.42864 -30.55,-8.47922 -33.66667,-9.00129 -3.11666,-0.52208 -5.66666,-1.27005 -5.66666,-1.66216 0,-0.39211 4.51989,-8.72039 10.0442,-18.50729 l 10.0442,-17.79438 4.28913,0.77058 c 8.44269,1.5168 25.00727,5.89606 39.55712,10.45792 34.86908,10.93262 45.00799,8.49882 57.07686,-13.70099 l 4.34484,-7.99203 -37.34484,-20.94671 c -20.53967,-11.52069 -37.34484,-21.48012 -37.34484,-22.13205 0,-1.41192 18.61792,-34.54107 19.41138,-34.54107 0.93123,0 181.18039,101.44235 182.43869,102.67462 2.5144,2.46228 -16.83895,43.97861 -29.44027,63.15457 -8.58019,13.05684 -23.22173,27.25891 -33.08008,32.08714 -6.71355,3.28803 -9.92152,3.98095 -19.99639,4.31923 -7.44042,0.24981 -14.05326,-0.26872 -17.40385,-1.36472 z m 33.7934,-43.10899 c 3.14759,-1.80042 7.554,-5.78336 9.79203,-8.85099 5.48977,-7.52476 12.06568,-20.67527 11.56116,-23.12004 -0.64255,-3.1136 -54.31263,-32.86431 -56.30463,-31.21111 -3.10988,2.58098 -12.60616,23.44146 -13.48603,29.62478 -1.35447,9.51858 2.01473,19.25741 8.98927,25.98386 12.78536,12.3306 26.52124,14.9677 39.4482,7.5735 z M 540.26006,704.60229 c -31.69726,-21.22148 -67.71322,-35.04355 -102.48905,-39.33286 -15.79876,-1.94864 -17.771,-2.82404 -17.771,-7.88776 0,-8.10006 6.14422,-10.41765 21.8138,-8.22809 17.19834,2.40319 15.51954,4.25081 15.51954,-17.08032 v -18.59341 l -12.06222,-8.26158 c -19.66536,-13.46906 -35.09514,-32.25485 -55.17725,-67.17839 -9.84589,-17.12236 -14.09387,-27.69725 -14.09387,-35.08525 0,-3.55563 1.9324,-11.0502 4.83971,-18.77012 l 4.83971,-12.85116 -2.37463,-12.19939 c -3.01441,-15.48624 -2.20568,-22.43647 4.4412,-38.1676 2.85835,-6.76483 6.50991,-17.62799 8.11459,-24.14036 1.60466,-6.51237 3.84338,-13.63099 4.97493,-15.81915 3.55531,-6.87521 12.63716,-15.62092 21.18563,-20.40149 8.02902,-4.49008 8.61026,-4.60535 23.22389,-4.60535 h 14.98876 l 12.59453,6.25225 c 11.74198,5.82902 13.51665,6.31258 26.21645,7.14346 14.84432,0.97116 21.7907,3.39758 30.66284,10.71076 5.8928,4.85735 6.30154,7.57177 1.2924,8.58277 -16.75464,3.38159 -30.84622,10.30151 -40.62288,19.94856 -7.61243,7.51152 -9.31292,13.51263 -5.71967,20.18491 3.10853,5.77219 8.68437,9.47541 28.00921,18.60247 27.63822,13.05344 39.86772,22.76396 52.77947,41.90816 14.24559,21.12188 18.01244,24.26784 48.02532,40.1092 21.55694,11.37816 36.18972,20.63565 46.92283,29.68595 5.11101,4.30966 6.27108,6.02853 5.67407,8.40722 -0.68251,2.71935 1.09082,3.89502 19.59061,12.988 23.2179,11.41202 55.5697,28.62291 58.72358,31.24045 2.68416,2.2277 1.50238,5.56918 -1.96963,5.56918 -3.61529,0 -2.62176,1.91863 2.92043,5.63967 6.71836,4.51073 6.19453,7.12752 -1.32772,6.63261 -7.35883,-0.48416 -6.03646,0.94599 4.66105,5.04098 4.4,1.6843 15.05,6.72176 23.66667,11.19434 11.35052,5.89162 15.66666,8.80576 15.66666,10.57771 0,2.10936 -0.96274,2.39392 -7,2.069 -6.33972,-0.34119 -7.04018,-0.0989 -7.42606,2.56783 -0.5135,3.54873 0.58688,3.52834 -11.93178,0.22109 -14.94994,-3.94957 -36.81334,-11.55756 -48.16326,-16.75979 -11.56951,-5.30286 -12.21422,-5.39705 -11.79651,-1.7233 0.18205,1.60124 -0.82051,3.51281 -2.34905,4.4789 -2.92656,1.84971 -17.12559,-1.26414 -55.00001,-12.06148 -2.46997,-0.70414 -3,-0.32989 -3,2.11832 0,2.75547 -0.42732,2.9095 -5.82572,2.09995 -5.69021,-0.85329 -5.81066,-0.79479 -5.1779,2.51528 0.51364,2.68693 0.11253,3.38889 -1.93675,3.38889 -3.16401,0 -15.24928,-3.91906 -16.99296,-5.51054 -2.46597,-2.25075 -4.73333,-1.13675 -4.73333,2.3256 0,3.19364 -0.35855,3.41942 -4.33334,2.72888 -9.30546,-1.61667 -26.44683,-2.49636 -32.10612,-1.64771 -4.23812,0.63555 -6.13635,1.61229 -6.60325,3.39773 -0.61035,2.33398 -1.83123,2.10332 -17.80628,-3.36402 -9.43306,-3.22839 -17.90102,-5.88334 -18.81768,-5.89987 -1.25943,-0.0227 -1.66634,4.77541 -1.66531,19.6366 l 10e-4,19.66667 6.99866,3.89297 c 11.91092,6.62541 26.2186,16.69448 28.35484,19.95482 3.209,4.89753 -0.56742,11.34604 -6.7014,11.44314 -1.4732,0.0233 -7.65084,-3.28657 -13.7281,-7.35533 z m -31.22242,-54.91431 -0.37096,-18.31204 -17.27053,-4.30632 c -9.49879,-2.36847 -17.51882,-4.05803 -17.82227,-3.75457 -0.66365,0.66364 -0.69949,31.41138 -0.0371,31.82676 0.25479,0.15977 5.56324,2.01141 11.79658,4.11477 6.23333,2.10335 13.73333,4.88869 16.66667,6.18967 2.93333,1.30097 5.80026,2.40778 6.37096,2.45958 0.57069,0.0519 0.87069,-8.14622 0.66666,-18.21785 z M 460.10027,393.90396 c 4.60364,-4.41057 5.7786,-8.87761 3.86232,-14.68401 -2.04632,-6.20041 -7.12043,-9.88661 -13.60906,-9.88661 -10.36201,0 -17.81233,12.37913 -12.93509,21.49234 4.31567,8.06389 15.8448,9.62857 22.68183,3.07828 z M 93.333336,626.75199 c -41.750613,-8.8182 -69.633239,-35.60281 -75.698678,-72.71768 -3.707923,-22.68905 0.605624,-43.5692 12.650339,-61.23517 19.397258,-28.44997 58.831886,-43.95209 106.221953,-41.75687 52.93012,2.45185 86.49912,25.24517 96.86372,65.77039 3.24152,12.67422 3.52191,33.79761 0.60051,45.24056 -6.49819,25.45307 -26.43757,46.79853 -53.97117,57.77712 -23.51059,9.37447 -60.91128,12.36148 -86.666674,6.92165 z m 63.333334,-43.96111 c 31.27132,-8.22761 47.46376,-25.10388 45.659,-47.58726 -1.48552,-18.50658 -15.04068,-31.18032 -40.78685,-38.13475 -14.98646,-4.04808 -46.89413,-4.06159 -63.151166,-0.0268 -23.133776,5.74159 -38.762185,15.91368 -45.126742,29.37172 -3.335809,7.05367 -3.998045,20.74053 -1.334748,27.58616 5.828367,14.98097 21.769389,25.78016 45.407172,30.76091 12.970904,2.73312 45.571854,1.65066 59.333334,-1.97004 z m 754.66669,-16.17406 c -49.25205,-7.69162 -79.27621,-40.99483 -79.29048,-87.95014 -0.0133,-43.07009 28.63829,-73.8362 81.01395,-86.99351 9.89351,-2.48534 15.25649,-2.91142 36.27653,-2.88213 23.08064,0.0321 25.43826,0.27073 36.66667,3.71032 26.68007,8.17291 46.07947,23.56703 56.49627,44.83199 12.1814,24.86702 12.5457,54.22753 0.9566,77.09751 -12.4354,24.53996 -40.6709,43.00948 -76.82428,50.25253 -12.37719,2.47967 -44.58602,3.60587 -55.29526,1.93343 z m 35.36831,-42.66354 c 21.90203,-2.67528 36.61759,-7.54972 50.80243,-16.828 14.4322,-9.44006 20.2974,-19.23686 20.2308,-33.79193 -0.096,-20.93248 -15.6699,-35.6348 -43.31084,-40.88619 -14.41246,-2.73817 -39.8239,-1.73735 -55.75736,2.19597 -14.18001,3.50047 -30.77742,11.43755 -38.93761,18.62043 -11.6666,10.26935 -16.49905,25.48553 -12.48216,39.30316 6.95736,23.93248 38.4932,36.38991 79.45474,31.38656 z M 166.00001,331.85261 C 115.4,303.21277 72.57969,279.02604 70.843753,278.1043 c -3.128114,-1.66094 -3.040367,-1.80556 9.843824,-16.22343 7.15004,-8.00114 13.735797,-15.34154 14.635013,-16.31201 1.333837,-1.43952 10.72126,3.87357 50.97239,28.84932 27.1356,16.83759 59.05552,36.98162 70.93315,44.76448 11.87764,7.78288 21.85432,14.15068 22.17041,14.15068 0.31609,0 -5.93027,-8.25 -13.8808,-18.33333 -7.95055,-10.08333 -30.78264,-40.6734 -50.738,-67.97794 l -36.28248,-49.64461 12.93001,-14.35539 c 7.11149,-7.89546 13.46695,-14.56117 14.12323,-14.81268 1.61449,-0.61873 101.51388,59.32103 125.00131,75.00094 10.32984,6.89608 18.78153,12.24688 18.78153,11.89065 0,-0.35621 -4.38064,-5.84965 -9.73476,-12.20765 -22.6386,-26.88326 -92.93191,-117.92261 -92.93191,-120.35941 0,-1.16493 25.03299,-29.590286 26.55654,-30.155364 0.42724,-0.158461 19.3768,26.509934 42.11013,59.263104 22.73334,32.75316 50.84446,73.24669 62.46915,89.98563 l 21.13581,30.43441 -9.13581,10.20802 c -5.02469,5.6144 -11.58843,12.91713 -14.58605,16.2283 l -5.45024,6.02031 -49.63059,-29.10547 c -27.29683,-16.008 -57.99423,-34.68892 -68.21643,-41.51313 -10.22221,-6.82423 -18.58584,-12.14551 -18.58584,-11.82507 0,0.32043 6.15,8.32415 13.66667,17.78603 18.85341,23.73242 80.03188,110.61029 79.25975,112.55459 -0.57955,1.45933 -27.3377,31.63205 -27.97714,31.54725 -0.15544,-0.0206 -41.68261,-23.47007 -92.28261,-52.10992 z m 600.58116,0.118 c -6.91963,-8.08281 -12.58115,-15.27023 -12.58115,-15.97201 0,-0.70178 29.87807,-27.05603 66.39571,-58.56499 36.51763,-31.50898 66.32536,-57.77156 66.2394,-58.36132 -0.086,-0.58975 -7.61436,-9.72195 -16.72976,-20.29378 -9.11541,-10.57182 -16.42314,-19.35251 -16.23941,-19.51264 16.40097,-14.29385 25.62136,-21.93253 26.47401,-21.93253 0.91832,0 89.49429,101.68085 94.11031,108.03403 1.35299,1.86214 -0.25958,3.7783 -11.07424,13.15912 -6.9618,6.03877 -13.34476,10.7506 -14.18437,10.47073 -0.8396,-0.27986 -8.76512,-8.84128 -17.61225,-19.02537 -8.84715,-10.1841 -16.56576,-18.43912 -17.15248,-18.3445 -0.58671,0.0947 -31.00579,26.01718 -67.59795,57.60569 -36.59215,31.5885 -66.74167,57.43364 -66.99893,57.43364 -0.25726,0 -6.12926,-6.61323 -13.04889,-14.69606 z m -115.69594,-82.7987 c -10.00242,-1.66316 -26.01401,-7.23452 -36.21854,-12.60254 -9.52392,-5.00999 -26.35528,-17.29131 -28.48713,-20.78618 -1.0661,-1.74774 0.46458,-4.96086 7.23411,-15.18537 4.7225,-7.13272 8.9869,-13.59056 9.47646,-14.35075 0.52057,-0.80834 4.03044,1.4879 8.4542,5.53098 20.79152,19.00228 47.40094,27.66424 62.04065,20.19562 7.27425,-3.71105 12.25763,-11.64261 13.00919,-20.70549 0.90441,-10.90607 -3.46836,-18.52407 -21.6811,-37.77155 -22.13074,-23.38809 -30.04638,-38.38656 -30.04638,-56.931515 0,-35.86694 32.42614,-61.800969 70.71663,-56.558272 21.18392,2.900481 41.5949,12.101565 58.34985,26.303562 l 4.3998,3.729412 -9.60435,13.980094 c -5.28238,7.689051 -9.80002,14.21782 -10.0392,14.508376 -0.23917,0.290557 -3.07868,-1.908707 -6.31002,-4.887253 -22.48983,-20.7304 -52.16569,-25.176851 -61.98581,-9.287577 -8.08849,13.087458 -4.34426,22.955333 17.40225,45.863523 8.08634,8.51832 17.01561,19.06677 19.84282,23.44101 10.57231,16.35742 13.922,32.2922 10.02246,47.67767 -9.01838,35.58147 -38.71363,54.13183 -76.57589,47.83625 z M 423.28255,188.84589 c -3.81052,-1.77442 -9.15891,-5.9017 -12.3592,-9.53742 -18.15968,-20.63049 -8.6298,-52.36562 18.0546,-60.12298 29.9882,-8.71781 56.20335,22.65993 43.30084,51.82817 -7.86539,17.78103 -31.01387,26.20593 -48.99624,17.83223 z"
       id="path199" />
  </g>
</svg>
