<?xml version="1.0" encoding="UTF-8" standalone="no"?>
<svg
   width="51"
   height="51"
   viewBox="0 0 51 51"
   fill="none"
   version="1.1"
   id="svg252"
   sodipodi:docname="store.svg"
   inkscape:version="1.2.2 (b0a8486541, 2022-12-01)"
   xmlns:inkscape="http://www.inkscape.org/namespaces/inkscape"
   xmlns:sodipodi="http://sodipodi.sourceforge.net/DTD/sodipodi-0.dtd"
   xmlns="http://www.w3.org/2000/svg"
   xmlns:svg="http://www.w3.org/2000/svg">
  <defs
     id="defs256" />
  <sodipodi:namedview
     id="namedview254"
     pagecolor="#ffffff"
     bordercolor="#666666"
     borderopacity="1.0"
     inkscape:showpageshadow="2"
     inkscape:pageopacity="0.0"
     inkscape:pagecheckerboard="0"
     inkscape:deskcolor="#d1d1d1"
     showgrid="false"
     inkscape:zoom="17.823529"
     inkscape:cx="25.556106"
     inkscape:cy="15.120462"
     inkscape:current-layer="svg252" />
  <path
     style="color:#000000;fill:#ffffff;stroke-linecap:round;stroke-linejoin:round;-inkscape-stroke:none"
     d="M 7.53125,0.19140625 A 1.8078708,1.8078708 0 0 0 5.8691406,1.2871094 L 0.44726563,13.941406 a 1.8078708,1.8078708 0 0 0 0.007813,0.08008 1.80769,1.80769 0 0 0 -0.26367188,0.632813 v 3.615234 c 0,2.396437 0.95392225,4.696023 2.64843755,6.390625 1.6945529,1.694503 3.9941797,2.648438 6.390625,2.648438 h 1.0117192 c 2.39643,0 4.698043,-0.953903 6.392578,-2.648438 0.362767,-0.362794 0.545187,-0.842554 0.83789,-1.255859 0.292867,0.413629 0.476822,0.892811 0.839844,1.255859 1.694534,1.694535 3.996148,2.648438 6.392578,2.648438 h 1.806641 c 2.39643,0 4.698043,-0.953903 6.392578,-2.648438 0.362795,-0.362795 0.545169,-0.84255 0.83789,-1.255859 0.292862,0.413635 0.476816,0.892804 0.839844,1.255859 1.694573,1.694448 3.996148,2.648438 6.392578,2.648438 h 0.902344 c 2.39643,0 4.698044,-0.953903 6.392578,-2.648438 1.694448,-1.694573 2.646485,-3.994132 2.646485,-6.390625 v -3.615234 a 1.80769,1.80769 0 0 0 -0.146485,-0.705078 1.8078708,1.8078708 0 0 0 0,-0.0078 L 45.347656,1.2871094 A 1.8078708,1.8078708 0 0 0 43.685547,0.19140625 Z M 8.7226563,3.8085938 H 42.494141 l 3.873046,9.0371092 H 33.742187 17.474609 4.8496094 Z M 3.8085938,16.460937 H 15.666016 v 1.808594 c 0,1.438966 -0.570373,2.816392 -1.587891,3.833985 -1.017463,1.017463 -2.396972,1.58789 -3.835937,1.58789 H 9.2304688 c -1.438991,0 -2.8164601,-0.570396 -3.8339844,-1.58789 C 4.3789423,21.085921 3.8085938,19.708491 3.8085938,18.269531 Z m 15.4726562,0 h 12.654297 v 1.808594 c 0,1.438966 -0.570303,2.816397 -1.587891,3.833985 -1.017463,1.017463 -2.396971,1.58789 -3.835937,1.58789 h -1.806641 c -1.438966,0 -2.818474,-0.570427 -3.835937,-1.58789 -1.01755,-1.017625 -1.587891,-2.395082 -1.587891,-3.833985 z m 16.269531,0 h 11.75 v 1.808594 c 0,1.438903 -0.570341,2.81636 -1.58789,3.833985 -1.017463,1.017463 -2.396972,1.58789 -3.835938,1.58789 h -0.902344 c -1.438966,0 -2.818313,-0.570341 -3.835937,-1.58789 -1.017518,-1.017593 -1.587891,-2.395019 -1.587891,-3.833985 z M 5.7246094,29.115234 a 1.80769,1.80769 0 0 0 -1.8085938,1.808594 v 5.421875 10.845703 c 0,0.958157 0.3810363,1.879103 1.0585938,2.556641 0.6774726,0.677472 1.5983583,1.060547 2.5566406,1.060547 h 21.693359 14.460938 c 0.958282,0 1.879168,-0.383075 2.55664,-1.060547 0.677473,-0.677473 1.058594,-1.598358 1.058594,-2.556641 V 30.923828 a 1.80769,1.80769 0 0 0 -1.808594,-1.808594 1.80769,1.80769 0 0 0 -1.80664,1.808594 V 47.191406 H 31.03125 V 36.345703 30.923828 a 1.80769,1.80769 0 0 0 -1.806641,-1.808594 1.80769,1.80769 0 0 0 -1.808593,1.808594 v 3.615234 H 7.53125 V 30.923828 A 1.80769,1.80769 0 0 0 5.7246094,29.115234 Z M 7.53125,38.154297 h 19.884766 v 9.037109 H 7.53125 Z"
     id="path250" />
</svg>
