<svg width="275" height="82" viewBox="0 0 275 82" fill="none" xmlns="http://www.w3.org/2000/svg">
<path d="M40.8766 27.9784C41.9598 27.9155 42.8346 28.2708 43.5727 28.9685C43.7072 29.0957 43.7769 29.2915 43.8765 29.4557C43.7192 29.5283 43.5687 29.6365 43.4036 29.6679C42.1561 29.9052 41.0617 30.4452 40.1361 31.3126C39.2693 32.125 39.3242 33.0133 40.3225 33.675C40.8684 34.0369 41.4654 34.3379 42.071 34.59C44.1108 35.4393 45.7615 36.7184 46.887 38.6597C47.7011 40.0639 49.113 40.7316 50.4684 41.4961C51.9508 42.3323 53.3506 43.3165 54.7688 44.2627C54.9305 44.3706 54.9609 44.661 55.0847 44.8448C55.187 44.9967 55.3138 45.1612 55.47 45.243C57.4227 46.2659 59.3839 47.2725 61.3402 48.2885C61.96 48.6104 61.9651 48.7036 61.4293 49.1505C61.4796 49.5502 62.6968 49.5104 61.7763 50.3121C62.1745 50.4844 62.5498 50.6262 62.9063 50.8055C63.6237 51.1664 64.3364 51.5377 65.0372 51.9295C65.1674 52.0023 65.2328 52.1913 65.3281 52.3267C65.1854 52.4009 65.0444 52.5327 64.8995 52.5373C64.5928 52.5471 64.2433 52.3457 64.0929 52.831C64.0775 52.8804 63.751 52.8843 63.5956 52.8312C61.8836 52.2463 60.1769 51.6458 58.4685 51.0506C58.3928 51.0242 58.3133 51.0087 58.1902 50.9762C58.0846 51.7101 57.6471 51.7158 57.067 51.5494C55.8992 51.2144 54.7211 50.9133 53.5392 50.632C53.3669 50.591 53.1525 50.7451 52.9537 50.7933C52.6998 50.8547 52.442 50.9002 52.1132 50.9674C52.0902 51.0409 52.039 51.2052 51.959 51.4615C51.3152 51.2473 50.7016 51.0431 50.0331 50.8207C50.1142 51.3446 49.8804 51.3773 49.4325 51.3281C48.5753 51.234 47.7064 51.2451 46.8421 51.2207C46.7232 51.2173 46.5223 51.2255 46.4957 51.2871C46.2279 51.9096 45.8467 51.5395 45.4927 51.4225C44.7397 51.1736 43.9862 50.9259 43.1296 50.6437C43.1296 51.7846 43.1099 52.791 43.1497 53.795C43.1561 53.9571 43.405 54.1428 43.5805 54.2592C44.3011 54.7372 45.0408 55.1863 45.765 55.659C46.1664 55.921 46.4427 56.2812 46.0942 56.7375C45.7639 57.1699 45.3431 57.0375 44.9446 56.7693C42.7959 55.3227 40.5373 54.0939 37.9966 53.4952C36.9987 53.2601 35.9691 53.1544 34.9505 53.0152C34.5114 52.9553 34.1589 52.7971 34.1683 52.318C34.1775 51.8467 34.5322 51.6213 34.9688 51.6391C35.6669 51.6675 36.3624 51.7564 37.0595 51.8144C37.1358 51.8208 37.215 51.7917 37.3522 51.7694C37.3522 50.7941 37.3649 49.829 37.3387 48.865C37.3347 48.7189 37.1818 48.5187 37.0435 48.4433C34.8351 47.2395 33.4447 45.2756 32.1861 43.1997C31.6853 42.3738 31.257 41.5025 30.8216 40.6387C30.3669 39.7367 30.372 38.8318 30.8093 37.9041C31.1759 37.1262 31.3371 36.3131 31.0553 35.4442C30.7024 34.3556 31.0136 33.3422 31.4427 32.3273C31.7535 31.5922 31.9936 30.8171 32.173 30.0386C32.5251 28.5104 33.4731 27.4323 34.8861 26.9962C35.9267 26.675 37.122 26.6193 38.2002 27.1491C39.0334 27.5585 39.8451 28.0238 40.8766 27.9784ZM38.6713 50.2724C38.6701 50.7671 38.6544 51.2624 38.6761 51.756C38.6833 51.9199 38.7461 52.184 38.852 52.2249C39.8021 52.5926 40.7674 52.9207 41.7994 53.2857C41.7994 52.3181 41.8067 51.4158 41.7905 50.5139C41.7884 50.3972 41.6859 50.2043 41.5942 50.1795C40.65 49.9245 39.6984 49.6969 38.6711 49.4424C38.6711 49.7592 38.6711 49.9601 38.6713 50.2724ZM36.178 27.9974C35.6317 28.347 35.2899 28.807 35.4632 29.4889C35.6084 30.0604 36.005 30.4061 36.5808 30.5031C37.1822 30.6044 37.6151 30.3029 37.9201 29.8173C38.2142 29.3488 38.1709 28.8721 37.8387 28.436C37.4316 27.9018 36.9059 27.7215 36.178 27.9974Z" fill="#FFFBFE"/>
<path d="M20.2981 22.6692C21.1996 23.9528 22.075 25.2006 22.9819 26.4932C22.2155 27.3487 21.4764 28.2045 20.6896 29.0137C20.5895 29.1167 20.202 29.0452 20.0118 28.9392C17.6535 27.6252 15.307 26.2899 12.9576 24.9599C10.2491 23.4267 7.54045 21.8936 4.83251 20.3592C4.70907 20.2893 4.592 20.208 4.39453 20.0831C5.22026 19.1581 6.02181 18.2602 6.86319 17.3178C10.7667 19.7718 14.6356 22.204 18.5045 24.6362C18.5253 24.617 18.5461 24.5977 18.5668 24.5785C15.8388 20.874 13.1108 17.1694 10.3538 13.4256C11.1253 12.5613 11.8758 11.7206 12.6806 10.8189C16.5693 13.1809 20.4312 15.5266 24.293 17.8723C24.3135 17.8563 24.3339 17.8404 24.3543 17.8244C21.5851 14.2483 18.8159 10.6722 16.0337 7.07935C16.8444 6.17317 17.5969 5.33215 18.4006 4.4339C19.3417 5.78205 20.2485 7.07741 21.1515 8.37545C23.6123 11.9129 26.0711 15.4518 28.5317 18.9894C29.0441 19.7259 29.0464 19.7245 28.4404 20.4012C27.9178 20.9848 27.3852 21.5599 26.8767 22.1555C26.6715 22.3958 26.5048 22.474 26.2048 22.2919C22.8223 20.2397 19.4329 18.1987 16.0449 16.1556C15.8052 16.0111 15.5615 15.8733 15.2523 15.6932C16.962 18.0569 18.6171 20.3452 20.2981 22.6692ZM24.4695 17.8667C24.4206 17.8684 24.3718 17.8702 24.3229 17.8719C24.3546 17.9293 24.3863 17.9868 24.4727 18.0905C24.5063 18.0866 24.5399 18.0828 24.5735 18.079C24.5541 18.0371 24.5347 17.9953 24.4695 17.8667Z" fill="#FFFBFE"/>
<path d="M87.5257 35.3894C88.4029 39.5419 86.2214 42.5205 82.8317 43.836C79.8231 45.0036 76.735 45.2681 73.6547 44.1315C68.5678 42.2545 67.3984 35.4812 71.522 31.9533C74.9156 29.0499 81.2972 28.6864 84.7863 31.2049C86.2144 32.2357 87.1296 33.6132 87.5257 35.3894ZM74.0473 34.4345C73.0806 35.0106 72.2809 35.739 72.0173 36.8841C71.6273 38.5781 72.5874 40.1483 74.5127 40.7236C77.4053 41.5879 80.2219 41.2478 82.88 39.8215C83.8106 39.3221 84.5281 38.5715 84.7608 37.486C85.1329 35.7502 84.1376 34.1621 82.2227 33.6021C79.4345 32.7868 76.7248 33.0942 74.0473 34.4345Z" fill="#FFFBFE"/>
<path d="M2.98397 48.2974C-0.538363 45.7862 -0.710544 40.9578 1.26004 38.2996C2.38805 36.778 3.93295 35.8697 5.72327 35.3719C8.58156 34.5772 11.4344 34.5833 14.2081 35.7061C17.0337 36.85 18.482 39.0363 18.651 42.0522C18.8218 45.1004 17.5308 47.4315 14.8135 48.7599C11.0814 50.5844 7.27822 50.6287 3.53784 48.6593C3.35661 48.5639 3.1935 48.434 2.98397 48.2974ZM7.85679 38.6359C6.54021 38.8349 5.27598 39.1791 4.19738 40.0081C2.35576 41.4235 2.42226 43.9475 4.35449 45.2321C4.8111 45.5356 5.32451 45.7912 5.84778 45.9503C8.12189 46.6417 10.4018 46.562 12.6534 45.8378C13.1753 45.6699 13.6877 45.4152 14.1442 45.11C16.5556 43.4981 16.341 40.5469 13.7157 39.3035C11.885 38.4365 9.93505 38.405 7.85679 38.6359Z" fill="#FFFBFE"/>
<path d="M73.4647 55.6935C73.7247 55.3399 73.6105 55.1741 73.2876 54.9959C71.52 54.0204 69.7648 53.0224 68.0063 52.0305C67.7948 51.9112 67.589 51.7818 67.3196 51.6206C67.8854 50.6125 68.4258 49.6497 69.0037 48.6201C70.0597 49.2046 71.0827 49.7633 72.0986 50.3346C76.0137 52.5362 79.9265 54.7418 83.8402 56.9459C84.6285 57.3898 84.6354 57.3927 84.2961 58.2021C83.4975 60.1074 82.6307 61.9816 81.337 63.6099C80.2154 65.0216 78.8558 66.0506 76.9164 65.8682C74.2349 65.616 72.306 63.449 72.3463 60.7699C72.3485 60.6263 72.3466 60.4826 72.3466 60.2385C71.1471 61.0342 69.8787 60.9867 68.5964 60.6852C67.9153 60.5251 67.2475 60.3089 66.5716 60.1259C65.4393 59.8193 64.3053 59.5189 63.0742 59.1898C63.414 58.5776 63.753 57.9582 64.1 57.3433C64.8312 56.0472 64.8364 56.0354 66.2475 56.4214C67.2803 56.7038 68.3004 57.0321 69.3297 57.3276C71.61 57.9823 72.2266 57.7407 73.4647 55.6935ZM79.8749 58.7072C78.591 57.9868 77.3071 57.2665 75.9579 56.5095C75.6085 57.1958 75.2412 57.7934 74.9897 58.4364C74.3955 59.9548 74.9531 61.3037 76.4213 62.0426C77.801 62.737 79.0488 62.3483 79.9523 60.9357C80.107 60.6938 80.2509 60.4428 80.3766 60.1847C80.9256 59.0571 80.8222 59.2753 79.8749 58.7072Z" fill="#FFFBFE"/>
<path d="M8.51976 66.5308C7.87415 65.2292 7.41311 63.936 7.83192 62.5059C8.65699 59.6886 11.8085 58.1873 14.5197 59.3088C14.6876 59.3783 14.8566 59.4449 15.1222 59.5519C14.738 57.4612 15.9877 56.1172 17.0924 54.7066C17.9403 53.6239 18.7734 52.5296 19.6409 51.4044C20.3122 52.2563 20.9928 53.0827 21.6166 53.9499C21.7155 54.0874 21.6341 54.4656 21.5071 54.6366C20.7459 55.6616 19.9394 56.6528 19.1639 57.6675C18.8024 58.1406 18.4438 58.6217 18.1417 59.1335C17.6512 59.9648 17.7347 60.7907 18.3011 61.5651C18.5789 61.9449 18.8718 62.3137 19.201 62.7437C20.1932 61.9674 21.1447 61.2242 22.0948 60.4791C23.0337 59.7428 23.9712 59.0047 24.9787 58.2129C25.7001 59.1238 26.3967 60.0034 27.1349 60.9354C22.4466 64.6232 17.7885 68.2872 13.0596 72.0069C11.3272 70.3685 9.74577 68.6309 8.51976 66.5308ZM11.0313 65.2982C11.3733 66.3015 12.052 67.0492 12.8291 67.7598C13.5851 67.168 14.2992 66.6117 15.0102 66.0515C15.7161 65.4953 16.4187 64.9351 17.1603 64.3468C16.7528 63.8415 16.4043 63.3848 16.0275 62.9527C15.8399 62.7376 15.6148 62.5478 15.3822 62.3808C14.4272 61.6951 13.3049 61.6803 12.3152 62.3235C11.176 63.0638 10.7701 63.9565 11.0313 65.2982Z" fill="#FFFBFE"/>
<path d="M58.5851 65.331C56.9241 66.2941 55.3032 67.2332 53.6034 68.2182C53.1123 67.3878 52.6368 66.5838 52.1113 65.6953C55.0426 63.9967 57.9355 62.3202 60.8958 60.6047C63.9277 65.8521 66.9315 71.051 69.9691 76.3085C67.1429 77.9455 64.3685 79.5525 61.5233 81.2006C61.0316 80.3527 60.5612 79.5416 60.054 78.6671C61.8692 77.6115 63.6418 76.5805 65.4654 75.5199C64.7348 74.2528 64.0285 73.028 63.2884 71.7444C61.5738 72.7322 59.9021 73.6952 58.1689 74.6937C57.6946 73.8726 57.2353 73.0774 56.7413 72.2222C58.4447 71.2323 60.111 70.2639 61.8459 69.2556C61.0109 67.8051 60.1936 66.3855 59.3488 64.9182C59.0835 65.0608 58.8544 65.184 58.5851 65.331Z" fill="#FFFBFE"/>
<path d="M62.4706 1.63551C63.7206 2.57824 63.7204 2.57808 62.8682 3.8024C62.5891 4.20336 62.3115 4.60541 62.0938 4.91958C61.146 4.35407 60.2796 3.77022 59.3514 3.31176C58.8927 3.08519 58.3191 3.00172 57.799 3.00666C56.3275 3.02065 55.4456 4.46775 56.1495 5.75837C56.5078 6.41521 57.0662 6.96411 57.5439 7.55393C58.2671 8.44696 59.1347 9.25447 59.702 10.2366C61.5659 13.464 59.3741 17.5617 55.6625 17.8527C52.8649 18.072 50.5163 16.9802 48.4663 15.161C48.3335 15.0431 48.241 14.6879 48.3193 14.5552C48.7568 13.8139 49.2527 13.1072 49.7023 12.4284C50.5199 13.0165 51.2448 13.6811 52.0904 14.1044C52.8785 14.4989 53.7853 14.8002 54.657 14.8514C56.197 14.9418 57.2665 13.3404 56.6054 11.9411C56.2294 11.1453 55.5491 10.4915 54.9945 9.78265C54.3371 8.94243 53.547 8.18055 53.0249 7.26453C51.2186 4.0952 53.3149 0.292256 56.9578 0.0208773C58.9801 -0.129779 60.7631 0.547881 62.4706 1.63551Z" fill="#FFFBFE"/>
<path d="M38.7969 71.3587C38.7 74.2043 37.8277 76.7187 36.056 78.8828C33.7269 81.7276 30.0053 82.6263 26.4091 81.2587C25.2313 80.8108 24.0977 80.2884 23.1636 79.3534C23.7027 78.5382 24.2211 77.7541 24.6559 77.0965C25.7086 77.6142 26.6401 78.211 27.6579 78.5439C29.7759 79.2366 31.614 78.6451 33.0435 76.9425C34.3011 75.4447 34.9671 73.6682 35.1025 71.7324C35.2867 69.0993 33.8988 67.17 31.3304 66.4139C30.508 66.1718 29.6485 66.0562 28.7241 65.8658C28.8551 65.0906 28.9807 64.2629 29.1498 63.4442C29.1736 63.3287 29.4038 63.1893 29.5494 63.1753C33.2468 62.821 37.6435 65.8382 38.5213 69.3482C38.6801 69.9829 38.7082 70.6503 38.7969 71.3587Z" fill="#FFFBFE"/>
<path d="M65.5177 25.3506C65.2191 25.6039 64.9534 25.8279 64.6449 26.0879C63.8842 25.2072 63.1496 24.3568 62.3652 23.4488C66.1941 20.1392 69.975 16.871 73.7897 13.5736C72.8262 12.451 71.8898 11.3599 70.8981 10.2045C71.6532 9.54685 72.3887 8.90627 73.1766 8.22C75.8973 11.3745 78.5823 14.4875 81.295 17.6327C80.5197 18.3026 79.7916 18.9317 79.009 19.6079C78.0341 18.4847 77.0823 17.388 76.0762 16.2288C72.5502 19.2746 69.0503 22.2979 65.5177 25.3506Z" fill="#FFFBFE"/>
<path d="M34.7654 6.81384C36.2568 6.40622 37.514 6.81047 38.3171 7.92629C39.0993 9.01322 39.1439 10.5096 38.4263 11.5887C37.6998 12.6813 36.347 13.2017 35.011 12.9024C33.7348 12.6165 32.7583 11.4458 32.6407 10.0607C32.5184 8.61956 33.2792 7.43623 34.7654 6.81384Z" fill="#FFFBFE"/>
<path d="M46.1123 70.548C47.6643 69.8563 49.0972 70.1016 50.044 71.189C50.9641 72.246 51.0972 73.8134 50.3665 74.9896C49.6673 76.1152 48.4429 76.6509 47.0654 76.4337C45.906 76.251 44.9102 75.2946 44.6232 74.0881C44.313 72.7841 44.7678 71.5054 45.8147 70.7425C45.8979 70.6819 45.987 70.6295 46.1123 70.548Z" fill="#FFFBFE"/>
<path d="M36.5556 28.1276C37.3377 28.1381 37.7642 28.4613 37.8133 29.0578C37.8584 29.6062 37.6486 30.0308 37.1144 30.2225C36.5863 30.412 36.0145 30.1457 35.7778 29.6397C35.4948 29.0347 35.7539 28.5008 36.5556 28.1276Z" fill="#262626"/>
<path d="M107.876 53V26.8182H117.209C119.246 26.8182 120.933 27.1889 122.271 27.9304C123.609 28.6719 124.611 29.6861 125.276 30.973C125.94 32.2514 126.273 33.6918 126.273 35.294C126.273 36.9048 125.936 38.3537 125.263 39.6406C124.598 40.919 123.592 41.9332 122.246 42.6832C120.908 43.4247 119.224 43.7955 117.196 43.7955H110.778V40.446H116.838C118.125 40.446 119.169 40.2244 119.97 39.7812C120.771 39.3295 121.359 38.7159 121.734 37.9403C122.109 37.1648 122.297 36.2827 122.297 35.294C122.297 34.3054 122.109 33.4276 121.734 32.6605C121.359 31.8935 120.767 31.2926 119.957 30.858C119.156 30.4233 118.099 30.206 116.787 30.206H111.827V53H107.876ZM136.136 53.4347C134.891 53.4347 133.766 53.2045 132.761 52.7443C131.755 52.2756 130.958 51.598 130.37 50.7116C129.79 49.8253 129.501 48.7386 129.501 47.4517C129.501 46.3437 129.714 45.4318 130.14 44.7159C130.566 44 131.141 43.4332 131.866 43.0156C132.59 42.598 133.4 42.2827 134.295 42.0696C135.19 41.8565 136.102 41.6946 137.031 41.5838C138.207 41.4474 139.161 41.3366 139.894 41.2514C140.627 41.1577 141.16 41.0085 141.492 40.804C141.825 40.5994 141.991 40.267 141.991 39.8068V39.7173C141.991 38.6009 141.675 37.7358 141.045 37.1222C140.423 36.5085 139.494 36.2017 138.258 36.2017C136.971 36.2017 135.957 36.4872 135.215 37.0582C134.482 37.6207 133.975 38.2472 133.694 38.9375L130.102 38.1193C130.528 36.9261 131.15 35.9631 131.968 35.2301C132.795 34.4886 133.745 33.9517 134.819 33.6193C135.893 33.2784 137.022 33.108 138.207 33.108C138.991 33.108 139.822 33.2017 140.7 33.3892C141.586 33.5682 142.413 33.9006 143.18 34.3864C143.955 34.8722 144.59 35.5668 145.085 36.4702C145.579 37.3651 145.826 38.5284 145.826 39.9602V53H142.093V50.3153H141.94C141.692 50.8097 141.322 51.2955 140.827 51.7727C140.333 52.25 139.698 52.6463 138.923 52.9616C138.147 53.277 137.218 53.4347 136.136 53.4347ZM136.967 50.3665C138.023 50.3665 138.927 50.1577 139.677 49.7401C140.435 49.3224 141.011 48.777 141.403 48.1037C141.803 47.4219 142.004 46.6932 142.004 45.9176V43.3864C141.867 43.5227 141.603 43.6506 141.211 43.7699C140.827 43.8807 140.388 43.9787 139.894 44.0639C139.4 44.1406 138.918 44.2131 138.45 44.2812C137.981 44.3409 137.589 44.392 137.273 44.4347C136.532 44.5284 135.854 44.6861 135.241 44.9077C134.636 45.1293 134.15 45.4489 133.783 45.8665C133.425 46.2756 133.246 46.821 133.246 47.5028C133.246 48.4489 133.596 49.1648 134.295 49.6506C134.994 50.1278 135.884 50.3665 136.967 50.3665ZM152.63 60.3636C152.059 60.3636 151.539 60.3168 151.071 60.223C150.602 60.1378 150.252 60.044 150.022 59.9418L150.943 56.8097C151.642 56.9972 152.264 57.0781 152.809 57.0526C153.355 57.027 153.836 56.8224 154.254 56.4389C154.68 56.0554 155.055 55.429 155.379 54.5597L155.852 53.2557L148.667 33.3636H152.758L157.731 48.6023H157.936L162.909 33.3636H167.012L158.92 55.6207C158.545 56.6435 158.068 57.5085 157.488 58.2159C156.909 58.9318 156.218 59.4688 155.417 59.8267C154.616 60.1847 153.687 60.3636 152.63 60.3636ZM170.605 53V33.3636H174.274V36.5597H174.517C174.926 35.4773 175.595 34.6335 176.524 34.0284C177.453 33.4148 178.565 33.108 179.86 33.108C181.173 33.108 182.272 33.4148 183.159 34.0284C184.054 34.642 184.714 35.4858 185.14 36.5597H185.345C185.814 35.5114 186.559 34.6761 187.582 34.054C188.605 33.4233 189.824 33.108 191.238 33.108C193.02 33.108 194.473 33.6662 195.598 34.7827C196.731 35.8991 197.298 37.5824 197.298 39.8324V53H193.475V40.1903C193.475 38.8608 193.113 37.8977 192.389 37.3011C191.664 36.7045 190.799 36.4062 189.794 36.4062C188.549 36.4062 187.582 36.7898 186.892 37.5568C186.201 38.3153 185.856 39.2912 185.856 40.4844V53H182.047V39.9474C182.047 38.8821 181.714 38.0256 181.049 37.3778C180.385 36.7301 179.52 36.4062 178.454 36.4062C177.73 36.4062 177.061 36.598 176.447 36.9815C175.842 37.3565 175.352 37.8807 174.977 38.554C174.61 39.2273 174.427 40.0071 174.427 40.8935V53H170.605ZM210.884 53.3963C208.95 53.3963 207.283 52.983 205.886 52.1562C204.496 51.321 203.423 50.1491 202.664 48.6406C201.914 47.1236 201.539 45.3466 201.539 43.3097C201.539 41.2983 201.914 39.5256 202.664 37.9915C203.423 36.4574 204.479 35.2599 205.835 34.3991C207.198 33.5384 208.792 33.108 210.616 33.108C211.724 33.108 212.798 33.2912 213.837 33.6577C214.877 34.0241 215.81 34.5994 216.637 35.3835C217.464 36.1676 218.116 37.1861 218.593 38.4389C219.07 39.6832 219.309 41.196 219.309 42.9773V44.3324H203.7V41.4688H215.563C215.563 40.4631 215.359 39.5724 214.95 38.7969C214.54 38.0128 213.965 37.3949 213.224 36.9432C212.491 36.4915 211.63 36.2656 210.641 36.2656C209.567 36.2656 208.63 36.5298 207.829 37.0582C207.036 37.5781 206.423 38.2599 205.988 39.1037C205.562 39.9389 205.349 40.8466 205.349 41.8267V44.0639C205.349 45.3764 205.579 46.4929 206.039 47.4134C206.508 48.3338 207.16 49.0369 207.995 49.5227C208.83 50 209.806 50.2386 210.923 50.2386C211.647 50.2386 212.308 50.1364 212.904 49.9318C213.501 49.7187 214.016 49.4034 214.451 48.9858C214.886 48.5682 215.218 48.0526 215.448 47.4389L219.066 48.0909C218.776 49.1562 218.256 50.0895 217.506 50.8906C216.765 51.6832 215.832 52.3011 214.707 52.7443C213.59 53.179 212.316 53.3963 210.884 53.3963ZM227.373 41.3409V53H223.55V33.3636H227.219V36.5597H227.462C227.914 35.5199 228.621 34.6847 229.584 34.054C230.556 33.4233 231.779 33.108 233.253 33.108C234.591 33.108 235.763 33.3892 236.769 33.9517C237.775 34.5057 238.554 35.3324 239.108 36.4318C239.662 37.5312 239.939 38.8906 239.939 40.5099V53H236.117V40.9702C236.117 39.5469 235.746 38.4347 235.005 37.6335C234.263 36.8239 233.245 36.419 231.949 36.419C231.063 36.419 230.275 36.6108 229.584 36.9943C228.902 37.3778 228.361 37.9403 227.961 38.6818C227.569 39.4148 227.373 40.3011 227.373 41.3409ZM254.232 33.3636V36.4318H243.506V33.3636H254.232ZM246.382 28.6591H250.205V47.2344C250.205 47.9759 250.316 48.5341 250.537 48.9091C250.759 49.2756 251.044 49.527 251.394 49.6634C251.752 49.7912 252.14 49.8551 252.557 49.8551C252.864 49.8551 253.132 49.8338 253.363 49.7912C253.593 49.7486 253.772 49.7145 253.9 49.6889L254.59 52.8466C254.368 52.9318 254.053 53.017 253.644 53.1023C253.235 53.196 252.723 53.2472 252.11 53.2557C251.104 53.2727 250.167 53.0938 249.297 52.7188C248.428 52.3438 247.725 51.7642 247.188 50.9801C246.651 50.196 246.382 49.2116 246.382 48.027V28.6591ZM272.858 38.1577L269.394 38.7713C269.249 38.3281 269.019 37.9062 268.703 37.5057C268.397 37.1051 267.979 36.777 267.451 36.5213C266.922 36.2656 266.262 36.1378 265.469 36.1378C264.387 36.1378 263.483 36.3807 262.759 36.8665C262.034 37.3437 261.672 37.9616 261.672 38.7202C261.672 39.3764 261.915 39.9048 262.401 40.3054C262.887 40.706 263.671 41.0341 264.753 41.2898L267.873 42.0057C269.679 42.4233 271.026 43.0668 271.912 43.9361C272.799 44.8054 273.242 45.9347 273.242 47.3239C273.242 48.5 272.901 49.5483 272.219 50.4688C271.546 51.3807 270.604 52.0966 269.394 52.6165C268.192 53.1364 266.799 53.3963 265.213 53.3963C263.015 53.3963 261.221 52.9276 259.831 51.9901C258.442 51.044 257.59 49.7017 257.275 47.9631L260.969 47.4006C261.199 48.3636 261.672 49.0923 262.388 49.5866C263.104 50.0724 264.037 50.3153 265.188 50.3153C266.441 50.3153 267.442 50.0554 268.192 49.5355C268.942 49.0071 269.317 48.3636 269.317 47.6051C269.317 46.9915 269.087 46.4759 268.627 46.0582C268.175 45.6406 267.48 45.3253 266.543 45.1122L263.219 44.3835C261.387 43.9659 260.032 43.3011 259.154 42.3892C258.284 41.4773 257.85 40.3224 257.85 38.9247C257.85 37.7656 258.174 36.7514 258.821 35.8821C259.469 35.0128 260.364 34.3352 261.506 33.8494C262.648 33.3551 263.956 33.108 265.431 33.108C267.553 33.108 269.223 33.5682 270.442 34.4886C271.661 35.4006 272.466 36.6236 272.858 38.1577Z" fill="white"/>
</svg>
