<?xml version="1.0" encoding="UTF-8" standalone="no"?>
<svg
   width="50.999985"
   height="50.980499"
   viewBox="0 0 50.999985 50.980499"
   fill="none"
   version="1.1"
   id="svg246"
   sodipodi:docname="pix_selected.svg"
   inkscape:version="1.2.2 (b0a8486541, 2022-12-01)"
   xmlns:inkscape="http://www.inkscape.org/namespaces/inkscape"
   xmlns:sodipodi="http://sodipodi.sourceforge.net/DTD/sodipodi-0.dtd"
   xmlns="http://www.w3.org/2000/svg"
   xmlns:svg="http://www.w3.org/2000/svg">
  <defs
     id="defs250" />
  <sodipodi:namedview
     id="namedview248"
     pagecolor="#ffffff"
     bordercolor="#666666"
     borderopacity="1.0"
     inkscape:showpageshadow="2"
     inkscape:pageopacity="0.0"
     inkscape:pagecheckerboard="0"
     inkscape:deskcolor="#d1d1d1"
     showgrid="false"
     inkscape:zoom="9.8804348"
     inkscape:cx="22.013201"
     inkscape:cy="46"
     inkscape:current-layer="svg246" />
  <path
     d="m 34.2878,37.0149 -7.6746,-7.6746 c -0.2805,-0.2805 -0.612,-0.3315 -0.7904,-0.3315 -0.1785,0 -0.51,0.051 -0.7904,0.3315 l -7.7001,7.7001 c -0.8669,0.8668 -2.2183,2.2692 -6.7312,2.2692 l 9.4593,9.4339 c 1.4343,1.4324 3.3784,2.237 5.4054,2.237 2.027,0 3.9711,-0.8046 5.4054,-2.237 l 9.4848,-9.4594 c -2.3202,0 -4.258,-0.459 -6.0682,-2.2692 z m -16.9555,-23.0748 7.7001,7.7001 c 0.2039,0.204 0.5099,0.3314 0.7904,0.3314 0.2804,0 0.5864,-0.1274 0.7904,-0.3314 l 7.6236,-7.6236 c 1.8102,-1.8868 3.8755,-2.3202 6.1957,-2.3202 L 30.9476,2.237 C 29.5134,0.804578 27.5693,0 25.5423,0 23.5153,0 21.5711,0.804578 20.1369,2.237 l -9.4593,9.4339 c 4.4874,0 5.8643,1.4788 6.6547,2.2692 z"
     fill="#f96666"
     id="path242" />
  <path
     d="m 48.718,20.0084 -5.7369,-5.7623 h -3.2126 c -1.3768,0 -2.7536,0.561 -3.697,1.5553 l -7.6491,7.6491 c -0.7139,0.7139 -1.6573,1.0709 -2.6007,1.0709 -0.9715,-0.0137 -1.9013,-0.3966 -2.6007,-1.0709 L 15.5209,15.7249 C 14.552,14.7561 13.2262,14.1951 11.8239,14.1951 H 8.0758 L 2.237,20.0594 C 0.804578,21.4936 0,23.4378 0,25.4648 c 0,2.027 0.804578,3.9711 2.237,5.4053 l 5.8388,5.8643 h 3.7736 c 1.3768,0 2.7026,-0.5609 3.697,-1.5298 l 7.7001,-7.7001 c 0.7139,-0.7139 1.6573,-1.0708 2.6007,-1.0708 0.9434,0 1.8868,0.3569 2.6007,1.0708 l 7.6746,7.6746 c 0.9688,0.9689 2.2947,1.5298 3.697,1.5298 h 3.2126 l 5.7368,-5.7623 c 1.4385,-1.46 2.2406,-3.43 2.231,-5.4796 C 50.9904,23.4175 50.17,21.455 48.718,20.0084 Z"
     fill="#f96666"
     id="path244" />
</svg>
