<svg width="106" height="106" viewBox="0 0 106 106" fill="none" xmlns="http://www.w3.org/2000/svg">
<rect x="0.5" y="0.5" width="105" height="105" fill="#D9D9D9" stroke="black"/>
<path d="M1 1L105 105" stroke="black"/>
<path d="M1 105L105 1" stroke="black"/>
<rect x="17" y="25" width="72" height="56" fill="#D9D9D9"/>
<path d="M75.908 36.3332H67.6354L67.3791 33.9996C67.2507 32.7998 66.802 31.733 66.0966 30.9326C65.006 29.6663 63.5311 29 61.9918 29H43.0091C41.2134 29 39.6101 29.8668 38.5839 31.4C38.0708 32.1334 37.8145 33.0002 37.6861 33.9335L37.3654 36.3331H29.0928C25.7578 36.3331 23 39.2 23 42.6664V70.6667C23 74.1335 25.7574 77 29.0923 77H75.9077C79.2426 77 82 74.1335 82 70.6667V42.6664C82.0004 39.2 79.2426 36.3331 75.9077 36.3331L75.908 36.3332ZM77.5113 70.6669C77.5113 71.6003 76.8058 72.3336 75.908 72.3336H29.0926C28.1948 72.3336 27.4894 71.6003 27.4894 70.6669V42.6666C27.4894 41.7333 28.1948 40.9999 29.0926 40.9999H39.3538C40.5079 40.9999 41.4701 40.1331 41.5986 38.9333L42.1117 34.4666C42.1756 34.2001 42.2401 34.0667 42.2401 34.0667C42.4324 33.8002 42.6892 33.6667 43.0095 33.6667H61.9922C62.2485 33.6667 62.5053 33.8002 62.6976 34.0002C62.7616 34.0667 62.826 34.2666 62.89 34.5336L63.4031 38.9338C63.5315 40.1335 64.4933 41.0003 65.6479 41.0003H75.909C76.8068 41.0003 77.5123 41.7337 77.5123 42.667L77.5113 70.6669Z" fill="black"/>
<path d="M53 40C45.2843 40 39 46.7332 39 55C39 63.2668 45.2843 70 53 70C60.7157 70 67 63.2668 67 55C67 46.7332 60.7157 40 53 40ZM53 65.3333C47.7109 65.3333 43.3554 60.6668 43.3554 54.9999C43.3554 49.333 47.7109 44.6664 53 44.6664C58.2891 44.6664 62.6446 49.333 62.6446 54.9999C62.6446 60.6668 58.2891 65.3333 53 65.3333Z" fill="black"/>
</svg>
