<svg width="16" height="24" viewBox="0 0 16 24" fill="none" xmlns="http://www.w3.org/2000/svg">
<path d="M12.6966 23.2245L0.401352 12.7219C0.255414 12.5969 0.151798 12.4614 0.0905044 12.3156C0.0292104 12.1697 -0.000950118 12.0134 2.28028e-05 11.8467C2.28028e-05 11.68 0.0306698 11.5237 0.0919638 11.3778C0.153258 11.2319 0.256387 11.0965 0.401352 10.9715L12.6966 0.437608C13.0372 0.145869 13.4628 0 13.9736 0C14.4844 0 14.9222 0.156289 15.287 0.468866C15.6519 0.781444 15.8343 1.14612 15.8343 1.56289C15.8343 1.97966 15.6519 2.34433 15.287 2.65691L4.56059 11.8467L15.287 21.0365C15.6276 21.3282 15.7978 21.6879 15.7978 22.1155C15.7978 22.5431 15.6154 22.9128 15.2506 23.2245C14.8857 23.5371 14.4601 23.6934 13.9736 23.6934C13.4871 23.6934 13.0615 23.5371 12.6966 23.2245Z" fill="#262626"/>
</svg>
